STARTFONT 2.1
COMMENT
COMMENT Converted from OpenType font "ethnocentric rg.otf" by "otf2bdf 3.0".
COMMENT
FONT -FreeType-Ethnocentric Rg-Medium-R-Normal--17-120-100-100-P-125-ISO10646-1
SIZE 12 100 100
FONTBOUNDINGBOX 34 21 -2 -4
STARTPROPERTIES 19
FOUNDRY "FreeType"
FAMILY_NAME "Ethnocentric Rg"
WEIGHT_NAME "Medium"
SLANT "R"
SETWIDTH_NAME "Normal"
ADD_STYLE_NAME ""
PIXEL_SIZE 17
POINT_SIZE 120
RESOLUTION_X 100
RESOLUTION_Y 100
SPACING "P"
AVERAGE_WIDTH 125
CHARSET_REGISTRY "ISO10646"
CHARSET_ENCODING "1"
FONT_ASCENT 16
FONT_DESCENT 4
COPYRIGHT "Copyright (c) 1999-2022 Typodermic Fonts Inc. All rights reserved."
_OTF_FONTFILE "ethnocentric rg.otf"
_OTF_PSNAME "EthnocentricRg-Regular"
ENDPROPERTIES
CHARS 364
STARTCHAR 0017
ENCODING 23
SWIDTH 360 0
DWIDTH 6 0
BBX 0 0 0 0
BITMAP
ENDCHAR
STARTCHAR 0020
ENCODING 32
SWIDTH 360 0
DWIDTH 6 0
BBX 0 0 0 0
BITMAP
ENDCHAR
STARTCHAR 0021
ENCODING 33
SWIDTH 300 0
DWIDTH 5 0
BBX 4 12 1 0
BITMAP
E0
E0
E0
E0
E0
E0
E0
E0
00
E0
F0
E0
ENDCHAR
STARTCHAR 0022
ENCODING 34
SWIDTH 420 0
DWIDTH 7 0
BBX 7 5 0 7
BITMAP
EE
6E
66
64
44
ENDCHAR
STARTCHAR 0023
ENCODING 35
SWIDTH 660 0
DWIDTH 11 0
BBX 10 12 1 0
BITMAP
0980
1B00
1B00
7FC0
7F80
3600
3600
FF00
FF00
6C00
6C00
CC00
ENDCHAR
STARTCHAR 0024
ENCODING 36
SWIDTH 660 0
DWIDTH 11 0
BBX 10 12 1 0
BITMAP
0800
0800
7F80
FF00
C800
FF80
3F80
09C0
7F80
FF80
0800
0800
ENDCHAR
STARTCHAR 0025
ENCODING 37
SWIDTH 1020 0
DWIDTH 17 0
BBX 15 13 1 -1
BITMAP
0010
FC20
C660
8640
CE80
7D80
0100
027C
06C6
04C6
08C6
187C
3000
ENDCHAR
STARTCHAR 0026
ENCODING 38
SWIDTH 900 0
DWIDTH 15 0
BBX 13 12 1 0
BITMAP
3F80
FF00
FE00
E000
F000
7FF8
FFF0
E1C0
E1C0
FFF8
FFF0
7FF0
ENDCHAR
STARTCHAR 0027
ENCODING 39
SWIDTH 240 0
DWIDTH 4 0
BBX 3 5 0 7
BITMAP
E0
60
60
60
40
ENDCHAR
STARTCHAR 0028
ENCODING 40
SWIDTH 360 0
DWIDTH 6 0
BBX 4 15 1 -2
BITMAP
30
20
60
60
60
40
C0
C0
C0
40
40
60
60
20
30
ENDCHAR
STARTCHAR 0029
ENCODING 41
SWIDTH 360 0
DWIDTH 6 0
BBX 3 15 1 -2
BITMAP
C0
C0
60
60
60
20
20
20
20
20
60
60
60
C0
C0
ENDCHAR
STARTCHAR 002A
ENCODING 42
SWIDTH 480 0
DWIDTH 8 0
BBX 6 6 1 6
BITMAP
30
30
FC
30
78
48
ENDCHAR
STARTCHAR 002B
ENCODING 43
SWIDTH 600 0
DWIDTH 10 0
BBX 9 9 1 1
BITMAP
1800
1800
1800
FF80
FF80
1800
1800
1800
1800
ENDCHAR
STARTCHAR 002C
ENCODING 44
SWIDTH 300 0
DWIDTH 5 0
BBX 3 5 1 -2
BITMAP
E0
E0
E0
C0
C0
ENDCHAR
STARTCHAR 002D
ENCODING 45
SWIDTH 480 0
DWIDTH 8 0
BBX 6 2 1 5
BITMAP
7C
F8
ENDCHAR
STARTCHAR 002E
ENCODING 46
SWIDTH 300 0
DWIDTH 5 0
BBX 3 3 1 0
BITMAP
E0
E0
E0
ENDCHAR
STARTCHAR 002F
ENCODING 47
SWIDTH 480 0
DWIDTH 8 0
BBX 8 13 0 -1
BITMAP
03
06
06
0C
0C
18
18
38
30
30
60
60
C0
ENDCHAR
STARTCHAR 0030
ENCODING 48
SWIDTH 960 0
DWIDTH 16 0
BBX 14 12 1 0
BITMAP
1FC0
7FF0
7FF8
F03C
E03C
E01C
E01C
E03C
F03C
7FF8
7FF0
1FC0
ENDCHAR
STARTCHAR 0031
ENCODING 49
SWIDTH 420 0
DWIDTH 7 0
BBX 6 12 0 0
BITMAP
3C
7C
FC
1C
1C
1C
1C
1C
1C
1C
1C
1C
ENDCHAR
STARTCHAR 0032
ENCODING 50
SWIDTH 960 0
DWIDTH 16 0
BBX 14 12 1 0
BITMAP
3FF0
7FF8
7FFC
003C
003C
7FF8
FFF0
E000
E000
FFFC
FFF8
FFF0
ENDCHAR
STARTCHAR 0033
ENCODING 51
SWIDTH 900 0
DWIDTH 15 0
BBX 13 12 1 0
BITMAP
3FF0
7FF8
FFF8
0038
0038
1FF0
1FF8
0038
0038
7FF8
FFF8
FFF0
ENDCHAR
STARTCHAR 0034
ENCODING 52
SWIDTH 960 0
DWIDTH 16 0
BBX 16 12 0 0
BITMAP
0070
00F8
01F8
03F8
07F8
0FF8
1E78
3C78
7FFF
FFFE
7FFC
0078
ENDCHAR
STARTCHAR 0035
ENCODING 53
SWIDTH 900 0
DWIDTH 15 0
BBX 13 12 1 0
BITMAP
FFF8
FFF0
FFE0
F000
F000
FFF0
FFF8
0038
0038
3FF8
7FF8
FFE0
ENDCHAR
STARTCHAR 0036
ENCODING 54
SWIDTH 960 0
DWIDTH 16 0
BBX 14 12 1 0
BITMAP
1FF8
3FF0
7FF0
F000
E000
FFF8
FFFC
E01C
F01C
7FFC
3FF8
0FF0
ENDCHAR
STARTCHAR 0037
ENCODING 55
SWIDTH 840 0
DWIDTH 14 0
BBX 14 12 0 0
BITMAP
3FFC
7FFC
FFFC
0078
00F0
01E0
03E0
03C0
0780
0F00
1E00
3E00
ENDCHAR
STARTCHAR 0038
ENCODING 56
SWIDTH 960 0
DWIDTH 16 0
BBX 14 12 1 0
BITMAP
3FF0
FFFC
FFFC
E01C
F03C
7FF8
FFFC
E01C
E01C
FFFC
FFFC
7FF8
ENDCHAR
STARTCHAR 0039
ENCODING 57
SWIDTH 960 0
DWIDTH 16 0
BBX 14 12 1 0
BITMAP
1FE0
7FF8
FFFC
E03C
E01C
FFFC
7FFC
001C
003C
1FF8
3FF0
7FE0
ENDCHAR
STARTCHAR 003A
ENCODING 58
SWIDTH 360 0
DWIDTH 6 0
BBX 4 9 1 0
BITMAP
60
F0
F0
00
00
00
F0
F0
60
ENDCHAR
STARTCHAR 003B
ENCODING 59
SWIDTH 300 0
DWIDTH 5 0
BBX 4 10 1 -2
BITMAP
E0
F0
E0
00
00
E0
E0
E0
C0
C0
ENDCHAR
STARTCHAR 003C
ENCODING 60
SWIDTH 600 0
DWIDTH 10 0
BBX 9 9 1 1
BITMAP
0180
0780
1E00
7800
E000
7800
1E00
0780
0180
ENDCHAR
STARTCHAR 003D
ENCODING 61
SWIDTH 600 0
DWIDTH 10 0
BBX 9 7 1 2
BITMAP
FF80
FF80
0000
0000
0000
FF80
FF80
ENDCHAR
STARTCHAR 003E
ENCODING 62
SWIDTH 600 0
DWIDTH 10 0
BBX 8 9 1 1
BITMAP
80
E0
78
1F
07
1F
78
E0
80
ENDCHAR
STARTCHAR 003F
ENCODING 63
SWIDTH 720 0
DWIDTH 12 0
BBX 12 12 0 0
BITMAP
3FC0
7FE0
FFF0
0070
0070
0FE0
1FC0
1C00
0000
1C00
1C00
1C00
ENDCHAR
STARTCHAR 0040
ENCODING 64
SWIDTH 900 0
DWIDTH 15 0
BBX 13 12 1 0
BITMAP
0FF8
3FF8
7018
E018
CFD8
DCD8
DCD8
CFF8
E7F8
7000
3FF0
1FF8
ENDCHAR
STARTCHAR 0041
ENCODING 65
SWIDTH 1140 0
DWIDTH 19 0
BBX 17 12 1 0
BITMAP
01C000
03E000
03F000
07F000
0F7800
0F7800
1E3C00
3C1E00
3C1E00
79FF00
F3FF80
F7FF80
ENDCHAR
STARTCHAR 0042
ENCODING 66
SWIDTH 960 0
DWIDTH 16 0
BBX 14 12 1 0
BITMAP
3FF0
7FFC
FFFC
001C
003C
FFF8
FFFC
F01C
F01C
FFFC
FFFC
FFF8
ENDCHAR
STARTCHAR 0043
ENCODING 67
SWIDTH 900 0
DWIDTH 15 0
BBX 14 12 1 0
BITMAP
1FFC
3FF8
7FF0
F000
F000
E000
E000
E000
F000
7FFC
3FF8
0FF0
ENDCHAR
STARTCHAR 0044
ENCODING 68
SWIDTH 960 0
DWIDTH 16 0
BBX 14 12 1 0
BITMAP
3FC0
7FF0
FFF8
007C
F03C
F01C
F01C
F03C
F03C
FFF8
FFF0
FFC0
ENDCHAR
STARTCHAR 0045
ENCODING 69
SWIDTH 840 0
DWIDTH 14 0
BBX 13 12 1 0
BITMAP
FFF8
FFF0
FFE0
F000
FFF0
FFF0
FFE0
F000
F000
FFF8
FFF0
FFE0
ENDCHAR
STARTCHAR 0046
ENCODING 70
SWIDTH 840 0
DWIDTH 14 0
BBX 12 12 1 0
BITMAP
FFF0
FFE0
FFE0
F000
FFF0
FFE0
FFC0
F000
F000
F000
F000
F000
ENDCHAR
STARTCHAR 0047
ENCODING 71
SWIDTH 960 0
DWIDTH 16 0
BBX 14 12 1 0
BITMAP
1FFC
3FF8
7FF0
F000
F000
E3FC
E7FC
F01C
F01C
7FFC
3FFC
0FFC
ENDCHAR
STARTCHAR 0048
ENCODING 72
SWIDTH 960 0
DWIDTH 16 0
BBX 14 12 1 0
BITMAP
F03C
F03C
F03C
F03C
FFFC
FFFC
FFFC
F03C
F03C
F03C
F03C
F03C
ENDCHAR
STARTCHAR 0049
ENCODING 73
SWIDTH 360 0
DWIDTH 6 0
BBX 4 12 1 0
BITMAP
F0
F0
F0
F0
F0
F0
F0
F0
F0
F0
F0
F0
ENDCHAR
STARTCHAR 004A
ENCODING 74
SWIDTH 720 0
DWIDTH 12 0
BBX 10 12 1 0
BITMAP
01C0
01C0
01C0
01C0
01C0
01C0
01C0
01C0
03C0
7FC0
FF80
FE00
ENDCHAR
STARTCHAR 004B
ENCODING 75
SWIDTH 900 0
DWIDTH 15 0
BBX 14 12 1 0
BITMAP
F0F8
F1F0
F3E0
F780
EF00
FE00
FF00
EF80
F7C0
F3E0
F1F0
F0FC
ENDCHAR
STARTCHAR 004C
ENCODING 76
SWIDTH 780 0
DWIDTH 13 0
BBX 12 12 1 0
BITMAP
F000
F000
F000
F000
F000
F000
F000
F000
F000
FFF0
FFE0
FFC0
ENDCHAR
STARTCHAR 004D
ENCODING 77
SWIDTH 1260 0
DWIDTH 21 0
BBX 21 12 0 0
BITMAP
0C0180
1E03C0
1F07C0
1F07C0
3F8FE0
3B8EE0
3BDEE0
79DCF0
79FCF0
70F870
70F870
F07078
ENDCHAR
STARTCHAR 004E
ENCODING 78
SWIDTH 900 0
DWIDTH 15 0
BBX 13 12 1 0
BITMAP
6038
F038
F838
FC38
FF38
EFB8
E7F8
E3F8
E1F8
E0F8
E078
E038
ENDCHAR
STARTCHAR 004F
ENCODING 79
SWIDTH 1080 0
DWIDTH 18 0
BBX 16 12 1 0
BITMAP
0FF0
3FFC
7FFE
F00F
E00F
E007
E007
E00F
F00F
7FFE
3FFC
0FF0
ENDCHAR
STARTCHAR 0050
ENCODING 80
SWIDTH 960 0
DWIDTH 16 0
BBX 15 12 1 0
BITMAP
3FF0
7FFC
FFFC
001E
001E
001E
FFFC
FFFC
FFF0
E000
E000
E000
ENDCHAR
STARTCHAR 0051
ENCODING 81
SWIDTH 1080 0
DWIDTH 18 0
BBX 16 12 1 0
BITMAP
0FF0
3FFC
7FFE
F00F
E00F
E007
E007
E3EF
F0F0
7FF8
3FFC
1FFF
ENDCHAR
STARTCHAR 0052
ENCODING 82
SWIDTH 1020 0
DWIDTH 17 0
BBX 15 12 1 0
BITMAP
3FF8
7FFC
FFFE
001E
000E
001E
FFFE
FFFC
FFF8
E07C
E03E
E01E
ENDCHAR
STARTCHAR 0053
ENCODING 83
SWIDTH 960 0
DWIDTH 16 0
BBX 15 12 1 0
BITMAP
3FFC
FFF8
FFF0
E000
E000
FFF8
7FFC
001E
001E
7FFC
7FFC
FFF8
ENDCHAR
STARTCHAR 0054
ENCODING 84
SWIDTH 900 0
DWIDTH 15 0
BBX 15 12 0 0
BITMAP
3FFE
7FFC
FFF8
0780
0780
0780
0780
0780
0780
0780
0780
0780
ENDCHAR
STARTCHAR 0055
ENCODING 85
SWIDTH 960 0
DWIDTH 16 0
BBX 15 12 1 0
BITMAP
E01E
E01E
E01E
E01E
E01E
E01E
E01E
E01C
F03C
7FFC
7FF8
1FE0
ENDCHAR
STARTCHAR 0056
ENCODING 86
SWIDTH 1140 0
DWIDTH 19 0
BBX 18 12 0 0
BITMAP
F803C0
7803C0
3C0780
3E0F00
1E0F00
0F1E00
0FBC00
07BC00
03F800
03F000
01F000
00E000
ENDCHAR
STARTCHAR 0057
ENCODING 87
SWIDTH 1260 0
DWIDTH 21 0
BBX 21 12 0 0
BITMAP
F07078
70F870
70F870
79FCF0
79DCE0
3BDEE0
3B8EE0
3F8FE0
1F07C0
1F07C0
1E03C0
0C0180
ENDCHAR
STARTCHAR 0058
ENCODING 88
SWIDTH 1020 0
DWIDTH 17 0
BBX 16 12 1 0
BITMAP
F81E
7C3C
3E78
1FF0
0FE0
07C0
07E0
0FF0
1EF8
3C7C
783E
F01F
ENDCHAR
STARTCHAR 0059
ENCODING 89
SWIDTH 1020 0
DWIDTH 17 0
BBX 16 12 1 0
BITMAP
F01F
F81E
7C3C
3C78
1EF0
0FE0
07E0
07C0
0380
0380
0380
0380
ENDCHAR
STARTCHAR 005A
ENCODING 90
SWIDTH 900 0
DWIDTH 15 0
BBX 15 12 0 0
BITMAP
3FFC
7FFC
FFFC
00F8
01F0
07E0
0F80
1F00
3E00
7FFE
7FFC
7FF8
ENDCHAR
STARTCHAR 005B
ENCODING 91
SWIDTH 300 0
DWIDTH 5 0
BBX 4 15 1 -2
BITMAP
F0
F0
C0
C0
C0
C0
C0
C0
C0
C0
C0
C0
C0
F0
F0
ENDCHAR
STARTCHAR 005C
ENCODING 92
SWIDTH 480 0
DWIDTH 8 0
BBX 8 13 0 -1
BITMAP
C0
60
60
30
30
30
18
18
0C
0C
06
06
07
ENDCHAR
STARTCHAR 005D
ENCODING 93
SWIDTH 300 0
DWIDTH 5 0
BBX 3 15 1 -2
BITMAP
E0
E0
60
60
60
60
60
60
60
60
60
60
60
E0
E0
ENDCHAR
STARTCHAR 005E
ENCODING 94
SWIDTH 600 0
DWIDTH 10 0
BBX 8 7 1 5
BITMAP
38
3C
7C
6C
66
E6
C7
ENDCHAR
STARTCHAR 005F
ENCODING 95
SWIDTH 660 0
DWIDTH 11 0
BBX 11 2 0 -2
BITMAP
FFE0
FFE0
ENDCHAR
STARTCHAR 0060
ENCODING 96
SWIDTH 420 0
DWIDTH 7 0
BBX 5 2 0 12
BITMAP
E0
F8
ENDCHAR
STARTCHAR 0061
ENCODING 97
SWIDTH 1140 0
DWIDTH 19 0
BBX 17 12 1 0
BITMAP
01C000
03E000
03F000
07F000
0F7800
0F7800
1E3C00
3C1E00
3C1E00
79FF00
F3FF80
F7FF80
ENDCHAR
STARTCHAR 0062
ENCODING 98
SWIDTH 960 0
DWIDTH 16 0
BBX 14 12 1 0
BITMAP
3FF0
7FFC
FFFC
001C
003C
FFF8
FFFC
F01C
F01C
FFFC
FFFC
FFF8
ENDCHAR
STARTCHAR 0063
ENCODING 99
SWIDTH 900 0
DWIDTH 15 0
BBX 14 12 1 0
BITMAP
1FFC
3FF8
7FF0
F000
F000
E000
E000
E000
F000
7FFC
3FF8
0FF0
ENDCHAR
STARTCHAR 0064
ENCODING 100
SWIDTH 960 0
DWIDTH 16 0
BBX 14 12 1 0
BITMAP
3FC0
7FF0
FFF8
007C
F03C
F01C
F01C
F03C
F03C
FFF8
FFF0
FFC0
ENDCHAR
STARTCHAR 0065
ENCODING 101
SWIDTH 840 0
DWIDTH 14 0
BBX 13 12 1 0
BITMAP
FFF8
FFF0
FFE0
F000
FFF0
FFF0
FFE0
F000
F000
FFF8
FFF0
FFE0
ENDCHAR
STARTCHAR 0066
ENCODING 102
SWIDTH 840 0
DWIDTH 14 0
BBX 12 12 1 0
BITMAP
FFF0
FFE0
FFE0
F000
FFF0
FFE0
FFC0
F000
F000
F000
F000
F000
ENDCHAR
STARTCHAR 0067
ENCODING 103
SWIDTH 960 0
DWIDTH 16 0
BBX 14 12 1 0
BITMAP
1FFC
3FF8
7FF0
F000
F000
E3FC
E7FC
F01C
F01C
7FFC
3FFC
0FFC
ENDCHAR
STARTCHAR 0068
ENCODING 104
SWIDTH 960 0
DWIDTH 16 0
BBX 14 12 1 0
BITMAP
F03C
F03C
F03C
F03C
FFFC
FFFC
FFFC
F03C
F03C
F03C
F03C
F03C
ENDCHAR
STARTCHAR 0069
ENCODING 105
SWIDTH 360 0
DWIDTH 6 0
BBX 4 12 1 0
BITMAP
F0
F0
F0
F0
F0
F0
F0
F0
F0
F0
F0
F0
ENDCHAR
STARTCHAR 006A
ENCODING 106
SWIDTH 720 0
DWIDTH 12 0
BBX 10 12 1 0
BITMAP
01C0
01C0
01C0
01C0
01C0
01C0
01C0
01C0
03C0
7FC0
FF80
FE00
ENDCHAR
STARTCHAR 006B
ENCODING 107
SWIDTH 900 0
DWIDTH 15 0
BBX 14 12 1 0
BITMAP
F0F8
F1F0
F3E0
F780
EF00
FE00
FF00
EF80
F7C0
F3E0
F1F0
F0FC
ENDCHAR
STARTCHAR 006C
ENCODING 108
SWIDTH 780 0
DWIDTH 13 0
BBX 12 12 1 0
BITMAP
F000
F000
F000
F000
F000
F000
F000
F000
F000
FFF0
FFE0
FFC0
ENDCHAR
STARTCHAR 006D
ENCODING 109
SWIDTH 1260 0
DWIDTH 21 0
BBX 21 12 0 0
BITMAP
0C0180
1E03C0
1F07C0
1F07C0
3F8FE0
3B8EE0
3BDEE0
79DCF0
79FCF0
70F870
70F870
F07078
ENDCHAR
STARTCHAR 006E
ENCODING 110
SWIDTH 900 0
DWIDTH 15 0
BBX 13 12 1 0
BITMAP
6038
F038
F838
FC38
FF38
EFB8
E7F8
E3F8
E1F8
E0F8
E078
E038
ENDCHAR
STARTCHAR 006F
ENCODING 111
SWIDTH 1080 0
DWIDTH 18 0
BBX 16 12 1 0
BITMAP
0FF0
3FFC
7FFE
F00F
E00F
E007
E007
E00F
F00F
7FFE
3FFC
0FF0
ENDCHAR
STARTCHAR 0070
ENCODING 112
SWIDTH 960 0
DWIDTH 16 0
BBX 15 12 1 0
BITMAP
3FF0
7FFC
FFFC
001E
001E
001E
FFFC
FFFC
FFF0
E000
E000
E000
ENDCHAR
STARTCHAR 0071
ENCODING 113
SWIDTH 1080 0
DWIDTH 18 0
BBX 16 12 1 0
BITMAP
0FF0
3FFC
7FFE
F00F
E00F
E007
E007
E3EF
F0F0
7FF8
3FFC
1FFF
ENDCHAR
STARTCHAR 0072
ENCODING 114
SWIDTH 1020 0
DWIDTH 17 0
BBX 15 12 1 0
BITMAP
3FF8
7FFC
FFFE
001E
000E
001E
FFFE
FFFC
FFF8
E07C
E03E
E01E
ENDCHAR
STARTCHAR 0073
ENCODING 115
SWIDTH 960 0
DWIDTH 16 0
BBX 15 12 1 0
BITMAP
3FFC
FFF8
FFF0
E000
E000
FFF8
7FFC
001E
001E
7FFC
7FFC
FFF8
ENDCHAR
STARTCHAR 0074
ENCODING 116
SWIDTH 900 0
DWIDTH 15 0
BBX 15 12 0 0
BITMAP
3FFE
7FFC
FFF8
0780
0780
0780
0780
0780
0780
0780
0780
0780
ENDCHAR
STARTCHAR 0075
ENCODING 117
SWIDTH 960 0
DWIDTH 16 0
BBX 15 12 1 0
BITMAP
E01E
E01E
E01E
E01E
E01E
E01E
E01E
E01C
F03C
7FFC
7FF8
1FE0
ENDCHAR
STARTCHAR 0076
ENCODING 118
SWIDTH 1140 0
DWIDTH 19 0
BBX 18 12 0 0
BITMAP
F803C0
7803C0
3C0780
3E0F00
1E0F00
0F1E00
0FBC00
07BC00
03F800
03F000
01F000
00E000
ENDCHAR
STARTCHAR 0077
ENCODING 119
SWIDTH 1260 0
DWIDTH 21 0
BBX 21 12 0 0
BITMAP
F07078
70F870
70F870
79FCF0
79DCE0
3BDEE0
3B8EE0
3F8FE0
1F07C0
1F07C0
1E03C0
0C0180
ENDCHAR
STARTCHAR 0078
ENCODING 120
SWIDTH 1020 0
DWIDTH 17 0
BBX 16 12 1 0
BITMAP
F81E
7C3C
3E78
1FF0
0FE0
07C0
07E0
0FF0
1EF8
3C7C
783E
F01F
ENDCHAR
STARTCHAR 0079
ENCODING 121
SWIDTH 1020 0
DWIDTH 17 0
BBX 16 12 1 0
BITMAP
F01F
F81E
7C3C
3C78
1EF0
0FE0
07E0
07C0
0380
0380
0380
0380
ENDCHAR
STARTCHAR 007A
ENCODING 122
SWIDTH 900 0
DWIDTH 15 0
BBX 15 12 0 0
BITMAP
3FFC
7FFC
FFFC
00F8
01F0
07E0
0F80
1F00
3E00
7FFE
7FFC
7FF8
ENDCHAR
STARTCHAR 007B
ENCODING 123
SWIDTH 360 0
DWIDTH 6 0
BBX 4 16 1 -2
BITMAP
30
70
60
60
60
60
60
E0
E0
60
60
60
60
60
70
30
ENDCHAR
STARTCHAR 007C
ENCODING 124
SWIDTH 300 0
DWIDTH 5 0
BBX 1 15 2 -2
BITMAP
80
80
80
80
80
80
80
80
80
80
80
80
80
80
80
ENDCHAR
STARTCHAR 007D
ENCODING 125
SWIDTH 360 0
DWIDTH 6 0
BBX 4 16 1 -2
BITMAP
C0
E0
60
60
60
60
60
70
70
60
60
60
60
60
E0
C0
ENDCHAR
STARTCHAR 007E
ENCODING 126
SWIDTH 540 0
DWIDTH 9 0
BBX 8 4 1 3
BITMAP
01
F3
FF
9E
ENDCHAR
STARTCHAR 00A0
ENCODING 160
SWIDTH 360 0
DWIDTH 6 0
BBX 0 0 0 0
BITMAP
ENDCHAR
STARTCHAR 00A1
ENCODING 161
SWIDTH 300 0
DWIDTH 5 0
BBX 4 12 1 0
BITMAP
E0
F0
E0
00
E0
E0
E0
E0
F0
F0
F0
F0
ENDCHAR
STARTCHAR 00A2
ENCODING 162
SWIDTH 660 0
DWIDTH 11 0
BBX 9 12 1 0
BITMAP
0400
0400
3F80
7F00
E400
C400
C400
E400
7F80
3F00
0400
0400
ENDCHAR
STARTCHAR 00A3
ENCODING 163
SWIDTH 840 0
DWIDTH 14 0
BBX 13 12 0 0
BITMAP
07F8
0FF0
0FE0
1E00
1E00
7FC0
FF80
1E00
1E00
3FF8
3FF0
7FF0
ENDCHAR
STARTCHAR 00A5
ENCODING 165
SWIDTH 1020 0
DWIDTH 17 0
BBX 16 12 1 0
BITMAP
F01F
F81E
783C
3C78
1EF0
0FF0
3FFC
3FFC
0380
3FFC
3FFC
0380
ENDCHAR
STARTCHAR 00A6
ENCODING 166
SWIDTH 300 0
DWIDTH 5 0
BBX 1 15 2 -2
BITMAP
80
80
80
80
80
00
00
00
00
80
80
80
80
80
80
ENDCHAR
STARTCHAR 00A7
ENCODING 167
SWIDTH 960 0
DWIDTH 16 0
BBX 15 16 1 -4
BITMAP
3FFC
FFF8
FFF0
E000
E000
FFF8
FFFC
E01E
E01E
E01C
FFFC
7FFC
001E
7FFE
7FFC
FFF8
ENDCHAR
STARTCHAR 00A8
ENCODING 168
SWIDTH 420 0
DWIDTH 7 0
BBX 7 2 0 12
BITMAP
EE
6E
ENDCHAR
STARTCHAR 00A9
ENCODING 169
SWIDTH 780 0
DWIDTH 13 0
BBX 11 12 1 0
BITMAP
1F00
2080
4040
8E20
9020
9020
9020
9020
8E20
4040
2080
1F00
ENDCHAR
STARTCHAR 00AA
ENCODING 170
SWIDTH 660 0
DWIDTH 11 0
BBX 9 6 1 5
BITMAP
0C00
1E00
3600
7300
6F80
DF80
ENDCHAR
STARTCHAR 00AB
ENCODING 171
SWIDTH 480 0
DWIDTH 8 0
BBX 7 5 0 3
BITMAP
22
66
C8
6E
22
ENDCHAR
STARTCHAR 00AE
ENCODING 174
SWIDTH 480 0
DWIDTH 8 0
BBX 7 7 1 5
BITMAP
78
84
BA
8A
B2
84
78
ENDCHAR
STARTCHAR 00AF
ENCODING 175
SWIDTH 420 0
DWIDTH 7 0
BBX 5 1 1 13
BITMAP
F8
ENDCHAR
STARTCHAR 00B0
ENCODING 176
SWIDTH 420 0
DWIDTH 7 0
BBX 5 5 1 7
BITMAP
70
D8
88
98
F0
ENDCHAR
STARTCHAR 00B1
ENCODING 177
SWIDTH 600 0
DWIDTH 10 0
BBX 9 12 1 -2
BITMAP
1800
1800
1800
FF80
FF80
1800
1800
1800
1800
0000
FF80
FF80
ENDCHAR
STARTCHAR 00B2
ENCODING 178
SWIDTH 480 0
DWIDTH 8 0
BBX 7 5 1 6
BITMAP
FC
06
FC
80
FC
ENDCHAR
STARTCHAR 00B3
ENCODING 179
SWIDTH 480 0
DWIDTH 8 0
BBX 6 5 1 6
BITMAP
FC
04
7C
04
FC
ENDCHAR
STARTCHAR 00B4
ENCODING 180
SWIDTH 420 0
DWIDTH 7 0
BBX 5 2 1 12
BITMAP
18
F8
ENDCHAR
STARTCHAR 00B7
ENCODING 183
SWIDTH 300 0
DWIDTH 5 0
BBX 3 3 1 4
BITMAP
E0
E0
E0
ENDCHAR
STARTCHAR 00B8
ENCODING 184
SWIDTH 300 0
DWIDTH 5 0
BBX 2 3 1 -4
BITMAP
C0
C0
C0
ENDCHAR
STARTCHAR 00B9
ENCODING 185
SWIDTH 240 0
DWIDTH 4 0
BBX 2 5 1 6
BITMAP
C0
40
40
40
40
ENDCHAR
STARTCHAR 00BA
ENCODING 186
SWIDTH 660 0
DWIDTH 11 0
BBX 9 7 1 4
BITMAP
7E00
FF00
C180
C180
C180
7F00
1C00
ENDCHAR
STARTCHAR 00BB
ENCODING 187
SWIDTH 480 0
DWIDTH 8 0
BBX 6 5 1 3
BITMAP
90
DC
24
DC
90
ENDCHAR
STARTCHAR 00BC
ENCODING 188
SWIDTH 900 0
DWIDTH 15 0
BBX 13 12 1 0
BITMAP
0040
E0C0
6180
6100
6200
6600
0C30
0870
10D0
31B0
63F8
4030
ENDCHAR
STARTCHAR 00BD
ENCODING 189
SWIDTH 960 0
DWIDTH 16 0
BBX 14 12 1 0
BITMAP
0040
E080
6180
6100
6200
6400
0C00
08FC
100C
31FC
6180
41FC
ENDCHAR
STARTCHAR 00BE
ENCODING 190
SWIDTH 1080 0
DWIDTH 18 0
BBX 16 12 1 0
BITMAP
0018
FE10
0620
3C60
06C0
FC80
010C
031C
063C
0464
08FF
1804
ENDCHAR
STARTCHAR 00BF
ENCODING 191
SWIDTH 720 0
DWIDTH 12 0
BBX 12 12 0 0
BITMAP
0180
03C0
03C0
0000
01C0
3F80
7F80
7000
F000
7FF0
7FE0
3FC0
ENDCHAR
STARTCHAR 00C0
ENCODING 192
SWIDTH 1140 0
DWIDTH 19 0
BBX 17 15 1 0
BITMAP
070000
07C000
000000
01C000
03E000
03F000
07F000
0F7800
0F7800
1E3C00
3C1E00
3C1E00
79FF00
F3FF80
F7FF80
ENDCHAR
STARTCHAR 00C1
ENCODING 193
SWIDTH 1140 0
DWIDTH 19 0
BBX 17 15 1 0
BITMAP
006000
03E000
000000
01C000
03E000
03F000
07F000
0F7800
0F7800
1E3C00
3C1E00
3C1E00
79FF00
F3FF80
F7FF80
ENDCHAR
STARTCHAR 00C2
ENCODING 194
SWIDTH 1140 0
DWIDTH 19 0
BBX 17 15 1 0
BITMAP
01C000
034000
026000
01C000
03E000
03F000
07F000
0F7800
0F7800
1E3C00
3C1E00
3C1E00
79FF00
F3FF80
F7FF80
ENDCHAR
STARTCHAR 00C3
ENCODING 195
SWIDTH 1140 0
DWIDTH 19 0
BBX 17 15 1 0
BITMAP
038000
00E000
000000
01C000
03E000
03F000
07F000
0F7800
0F7800
1E3C00
3C1E00
3C1E00
79FF00
F3FF80
F7FF80
ENDCHAR
STARTCHAR 00C4
ENCODING 196
SWIDTH 1140 0
DWIDTH 19 0
BBX 17 15 1 0
BITMAP
077000
036000
000000
01C000
03E000
03F000
07F000
0F7800
0F7800
1E3C00
3C1E00
3C1E00
79FF00
F3FF80
F7FF80
ENDCHAR
STARTCHAR 00C5
ENCODING 197
SWIDTH 1140 0
DWIDTH 19 0
BBX 17 16 1 0
BITMAP
03E000
022000
03E000
000000
01C000
03E000
03F000
07F000
0F7800
0F7800
1E3C00
3C1E00
3C1E00
79FF00
F3FF80
F7FF80
ENDCHAR
STARTCHAR 00C6
ENCODING 198
SWIDTH 1440 0
DWIDTH 24 0
BBX 24 12 0 0
BITMAP
00FFFE
01FFFE
03FFFC
03DC00
079FFE
0F1FFC
0F1FFC
1E1C00
3E1C00
3C1FFF
781FFE
F81FFC
ENDCHAR
STARTCHAR 00C7
ENCODING 199
SWIDTH 900 0
DWIDTH 15 0
BBX 14 16 1 -4
BITMAP
1FFC
3FF8
7FF0
F000
F000
E000
E000
E000
F000
7FFC
3FF8
0FF0
0380
0380
0300
0300
ENDCHAR
STARTCHAR 00C8
ENCODING 200
SWIDTH 840 0
DWIDTH 14 0
BBX 13 15 1 0
BITMAP
1C00
1F00
0000
FFF8
FFF0
FFE0
F000
FFF0
FFF0
FFE0
F000
F000
FFF8
FFF0
FFE0
ENDCHAR
STARTCHAR 00C9
ENCODING 201
SWIDTH 840 0
DWIDTH 14 0
BBX 13 15 1 0
BITMAP
0380
0F80
0000
FFF8
FFF0
FFE0
F000
FFF0
FFF0
FFE0
F000
F000
FFF8
FFF0
FFE0
ENDCHAR
STARTCHAR 00CA
ENCODING 202
SWIDTH 840 0
DWIDTH 14 0
BBX 13 16 1 0
BITMAP
0600
0F00
0D80
0000
FFF8
FFF0
FFE0
F000
FFF0
FFF0
FFE0
F000
F000
FFF8
FFF0
FFE0
ENDCHAR
STARTCHAR 00CB
ENCODING 203
SWIDTH 840 0
DWIDTH 14 0
BBX 13 15 1 0
BITMAP
1F80
1980
0000
FFF8
FFF0
FFE0
F000
FFF0
FFF0
FFE0
F000
F000
FFF8
FFF0
FFE0
ENDCHAR
STARTCHAR 00CC
ENCODING 204
SWIDTH 360 0
DWIDTH 6 0
BBX 5 15 0 0
BITMAP
E0
F8
00
78
78
78
78
78
78
78
78
78
78
78
78
ENDCHAR
STARTCHAR 00CD
ENCODING 205
SWIDTH 360 0
DWIDTH 6 0
BBX 5 15 1 0
BITMAP
38
F8
00
F0
F0
F0
F0
F0
F0
F0
F0
F0
F0
F0
F0
ENDCHAR
STARTCHAR 00CE
ENCODING 206
SWIDTH 360 0
DWIDTH 6 0
BBX 5 16 0 0
BITMAP
30
78
C8
00
78
78
78
78
78
78
78
78
78
78
78
78
ENDCHAR
STARTCHAR 00CF
ENCODING 207
SWIDTH 360 0
DWIDTH 6 0
BBX 6 15 0 0
BITMAP
DC
DC
00
78
78
78
78
78
78
78
78
78
78
78
78
ENDCHAR
STARTCHAR 00D0
ENCODING 208
SWIDTH 1020 0
DWIDTH 17 0
BBX 17 12 0 0
BITMAP
0FF800
0FFE00
1FFF00
000F00
3FC780
7F8780
FF0780
3C0700
3C0F00
3FFE00
3FFE00
3FF800
ENDCHAR
STARTCHAR 00D1
ENCODING 209
SWIDTH 900 0
DWIDTH 15 0
BBX 13 15 1 0
BITMAP
0E00
0B80
0000
6038
F038
F838
FC38
FF38
EFB8
E7F8
E3F8
E1F8
E0F8
E078
E038
ENDCHAR
STARTCHAR 00D2
ENCODING 210
SWIDTH 1080 0
DWIDTH 18 0
BBX 16 15 1 0
BITMAP
0700
07C0
0000
0FF0
3FFC
7FFE
F00F
E00F
E007
E007
E00F
F00F
7FFE
3FFC
0FF0
ENDCHAR
STARTCHAR 00D3
ENCODING 211
SWIDTH 1080 0
DWIDTH 18 0
BBX 16 15 1 0
BITMAP
00E0
03E0
0000
0FF0
3FFC
7FFE
F00F
E00F
E007
E007
E00F
F00F
7FFE
3FFC
0FF0
ENDCHAR
STARTCHAR 00D4
ENCODING 212
SWIDTH 1080 0
DWIDTH 18 0
BBX 16 15 1 0
BITMAP
0380
02C0
0640
0FF0
3FFC
7FFE
F00F
E00F
E007
E007
E00F
F00F
7FFE
3FFC
0FF0
ENDCHAR
STARTCHAR 00D5
ENCODING 213
SWIDTH 1080 0
DWIDTH 18 0
BBX 16 15 1 0
BITMAP
0700
05C0
0000
0FF0
3FFC
7FFE
F00F
E00F
E007
E007
E00F
F00F
7FFE
3FFC
0FF0
ENDCHAR
STARTCHAR 00D6
ENCODING 214
SWIDTH 1080 0
DWIDTH 18 0
BBX 16 15 1 0
BITMAP
07E0
06E0
0000
0FF0
3FFC
7FFE
F00F
E00F
E007
E007
E00F
F00F
7FFE
3FFC
0FF0
ENDCHAR
STARTCHAR 00D7
ENCODING 215
SWIDTH 600 0
DWIDTH 10 0
BBX 8 8 1 2
BITMAP
42
E7
7E
3C
3C
7E
E7
42
ENDCHAR
STARTCHAR 00D8
ENCODING 216
SWIDTH 1080 0
DWIDTH 18 0
BBX 16 14 1 -1
BITMAP
0004
0FFC
3FFC
7FFE
F06F
E0CF
E087
E107
E20F
F40F
7FFE
3FFC
2FF0
4000
ENDCHAR
STARTCHAR 00D9
ENCODING 217
SWIDTH 960 0
DWIDTH 16 0
BBX 15 15 1 0
BITMAP
0E00
0F80
0000
E01E
E01E
E01E
E01E
E01E
E01E
E01E
E01C
F03C
7FFC
7FF8
1FE0
ENDCHAR
STARTCHAR 00DA
ENCODING 218
SWIDTH 960 0
DWIDTH 16 0
BBX 15 15 1 0
BITMAP
01C0
07C0
0000
E01E
E01E
E01E
E01E
E01E
E01E
E01E
E01C
F03C
7FFC
7FF8
1FE0
ENDCHAR
STARTCHAR 00DB
ENCODING 219
SWIDTH 960 0
DWIDTH 16 0
BBX 15 16 1 0
BITMAP
0300
0780
04C0
0000
E01E
E01E
E01E
E01E
E01E
E01E
E01E
E01C
F03C
7FFC
7FF8
1FE0
ENDCHAR
STARTCHAR 00DC
ENCODING 220
SWIDTH 960 0
DWIDTH 16 0
BBX 15 15 1 0
BITMAP
0EC0
0EC0
0000
E01E
E01E
E01E
E01E
E01E
E01E
E01E
E01C
F03C
7FFC
7FF8
1FE0
ENDCHAR
STARTCHAR 00DD
ENCODING 221
SWIDTH 1020 0
DWIDTH 17 0
BBX 16 15 1 0
BITMAP
00C0
07C0
0000
F01F
F81E
7C3C
3C78
1EF0
0FE0
07E0
07C0
0380
0380
0380
0380
ENDCHAR
STARTCHAR 00DE
ENCODING 222
SWIDTH 960 0
DWIDTH 16 0
BBX 14 12 1 0
BITMAP
F000
F000
FFF0
FFF8
FFFC
F01C
F01C
F01C
F3FC
F7F8
F7E0
F000
ENDCHAR
STARTCHAR 00DF
ENCODING 223
SWIDTH 1920 0
DWIDTH 32 0
BBX 31 12 1 0
BITMAP
3FFC3FFC
FFF8FFF8
FFF0FFF0
E000E000
E000E000
FFF8FFF8
7FFC7FFC
001E001E
001E001E
7FFC7FFC
7FFC7FFC
FFF8FFF8
ENDCHAR
STARTCHAR 00E0
ENCODING 224
SWIDTH 1140 0
DWIDTH 19 0
BBX 17 15 1 0
BITMAP
070000
07C000
000000
01C000
03E000
03F000
07F000
0F7800
0F7800
1E3C00
3C1E00
3C1E00
79FF00
F3FF80
F7FF80
ENDCHAR
STARTCHAR 00E1
ENCODING 225
SWIDTH 1140 0
DWIDTH 19 0
BBX 17 15 1 0
BITMAP
006000
03E000
000000
01C000
03E000
03F000
07F000
0F7800
0F7800
1E3C00
3C1E00
3C1E00
79FF00
F3FF80
F7FF80
ENDCHAR
STARTCHAR 00E2
ENCODING 226
SWIDTH 1140 0
DWIDTH 19 0
BBX 17 15 1 0
BITMAP
01C000
034000
026000
01C000
03E000
03F000
07F000
0F7800
0F7800
1E3C00
3C1E00
3C1E00
79FF00
F3FF80
F7FF80
ENDCHAR
STARTCHAR 00E3
ENCODING 227
SWIDTH 1140 0
DWIDTH 19 0
BBX 17 15 1 0
BITMAP
038000
00E000
000000
01C000
03E000
03F000
07F000
0F7800
0F7800
1E3C00
3C1E00
3C1E00
79FF00
F3FF80
F7FF80
ENDCHAR
STARTCHAR 00E4
ENCODING 228
SWIDTH 1140 0
DWIDTH 19 0
BBX 17 15 1 0
BITMAP
077000
036000
000000
01C000
03E000
03F000
07F000
0F7800
0F7800
1E3C00
3C1E00
3C1E00
79FF00
F3FF80
F7FF80
ENDCHAR
STARTCHAR 00E5
ENCODING 229
SWIDTH 1140 0
DWIDTH 19 0
BBX 17 16 1 0
BITMAP
03E000
022000
03E000
000000
01C000
03E000
03F000
07F000
0F7800
0F7800
1E3C00
3C1E00
3C1E00
79FF00
F3FF80
F7FF80
ENDCHAR
STARTCHAR 00E6
ENCODING 230
SWIDTH 1440 0
DWIDTH 24 0
BBX 24 12 0 0
BITMAP
00FFFE
01FFFE
03FFFC
03DC00
079FFE
0F1FFC
0F1FFC
1E1C00
3E1C00
3C1FFF
781FFE
F81FFC
ENDCHAR
STARTCHAR 00E7
ENCODING 231
SWIDTH 900 0
DWIDTH 15 0
BBX 14 16 1 -4
BITMAP
1FFC
3FF8
7FF0
F000
F000
E000
E000
E000
F000
7FFC
3FF8
0FF0
0380
0380
0300
0300
ENDCHAR
STARTCHAR 00E8
ENCODING 232
SWIDTH 840 0
DWIDTH 14 0
BBX 13 15 1 0
BITMAP
1C00
1F00
0000
FFF8
FFF0
FFE0
F000
FFF0
FFF0
FFE0
F000
F000
FFF8
FFF0
FFE0
ENDCHAR
STARTCHAR 00E9
ENCODING 233
SWIDTH 840 0
DWIDTH 14 0
BBX 13 15 1 0
BITMAP
0380
0F80
0000
FFF8
FFF0
FFE0
F000
FFF0
FFF0
FFE0
F000
F000
FFF8
FFF0
FFE0
ENDCHAR
STARTCHAR 00EA
ENCODING 234
SWIDTH 840 0
DWIDTH 14 0
BBX 13 16 1 0
BITMAP
0600
0F00
0D80
0000
FFF8
FFF0
FFE0
F000
FFF0
FFF0
FFE0
F000
F000
FFF8
FFF0
FFE0
ENDCHAR
STARTCHAR 00EB
ENCODING 235
SWIDTH 840 0
DWIDTH 14 0
BBX 13 15 1 0
BITMAP
1F80
1980
0000
FFF8
FFF0
FFE0
F000
FFF0
FFF0
FFE0
F000
F000
FFF8
FFF0
FFE0
ENDCHAR
STARTCHAR 00EC
ENCODING 236
SWIDTH 360 0
DWIDTH 6 0
BBX 5 15 0 0
BITMAP
E0
F8
00
78
78
78
78
78
78
78
78
78
78
78
78
ENDCHAR
STARTCHAR 00ED
ENCODING 237
SWIDTH 360 0
DWIDTH 6 0
BBX 5 15 1 0
BITMAP
38
F8
00
F0
F0
F0
F0
F0
F0
F0
F0
F0
F0
F0
F0
ENDCHAR
STARTCHAR 00EE
ENCODING 238
SWIDTH 360 0
DWIDTH 6 0
BBX 5 16 0 0
BITMAP
30
78
C8
00
78
78
78
78
78
78
78
78
78
78
78
78
ENDCHAR
STARTCHAR 00EF
ENCODING 239
SWIDTH 360 0
DWIDTH 6 0
BBX 6 15 0 0
BITMAP
DC
DC
00
78
78
78
78
78
78
78
78
78
78
78
78
ENDCHAR
STARTCHAR 00F0
ENCODING 240
SWIDTH 1020 0
DWIDTH 17 0
BBX 17 12 0 0
BITMAP
0FF800
0FFE00
1FFF00
000F00
3FC780
7F8780
FF0780
3C0700
3C0F00
3FFE00
3FFE00
3FF800
ENDCHAR
STARTCHAR 00F1
ENCODING 241
SWIDTH 900 0
DWIDTH 15 0
BBX 13 15 1 0
BITMAP
0E00
0B80
0000
6038
F038
F838
FC38
FF38
EFB8
E7F8
E3F8
E1F8
E0F8
E078
E038
ENDCHAR
STARTCHAR 00F2
ENCODING 242
SWIDTH 1080 0
DWIDTH 18 0
BBX 16 15 1 0
BITMAP
0700
07C0
0000
0FF0
3FFC
7FFE
F00F
E00F
E007
E007
E00F
F00F
7FFE
3FFC
0FF0
ENDCHAR
STARTCHAR 00F3
ENCODING 243
SWIDTH 1080 0
DWIDTH 18 0
BBX 16 15 1 0
BITMAP
00E0
03E0
0000
0FF0
3FFC
7FFE
F00F
E00F
E007
E007
E00F
F00F
7FFE
3FFC
0FF0
ENDCHAR
STARTCHAR 00F4
ENCODING 244
SWIDTH 1080 0
DWIDTH 18 0
BBX 16 15 1 0
BITMAP
0380
02C0
0640
0FF0
3FFC
7FFE
F00F
E00F
E007
E007
E00F
F00F
7FFE
3FFC
0FF0
ENDCHAR
STARTCHAR 00F5
ENCODING 245
SWIDTH 1080 0
DWIDTH 18 0
BBX 16 15 1 0
BITMAP
0700
05C0
0000
0FF0
3FFC
7FFE
F00F
E00F
E007
E007
E00F
F00F
7FFE
3FFC
0FF0
ENDCHAR
STARTCHAR 00F6
ENCODING 246
SWIDTH 1080 0
DWIDTH 18 0
BBX 16 15 1 0
BITMAP
07E0
06E0
0000
0FF0
3FFC
7FFE
F00F
E00F
E007
E007
E00F
F00F
7FFE
3FFC
0FF0
ENDCHAR
STARTCHAR 00F7
ENCODING 247
SWIDTH 600 0
DWIDTH 10 0
BBX 9 12 1 0
BITMAP
1C00
3C00
1C00
0000
0000
FF80
FF80
0000
0000
1C00
3C00
1C00
ENDCHAR
STARTCHAR 00F8
ENCODING 248
SWIDTH 1080 0
DWIDTH 18 0
BBX 16 14 1 -1
BITMAP
0004
0FFC
3FFC
7FFE
F06F
E0CF
E087
E107
E20F
F40F
7FFE
3FFC
2FF0
4000
ENDCHAR
STARTCHAR 00F9
ENCODING 249
SWIDTH 960 0
DWIDTH 16 0
BBX 15 15 1 0
BITMAP
0E00
0F80
0000
E01E
E01E
E01E
E01E
E01E
E01E
E01E
E01C
F03C
7FFC
7FF8
1FE0
ENDCHAR
STARTCHAR 00FA
ENCODING 250
SWIDTH 960 0
DWIDTH 16 0
BBX 15 15 1 0
BITMAP
01C0
07C0
0000
E01E
E01E
E01E
E01E
E01E
E01E
E01E
E01C
F03C
7FFC
7FF8
1FE0
ENDCHAR
STARTCHAR 00FB
ENCODING 251
SWIDTH 960 0
DWIDTH 16 0
BBX 15 16 1 0
BITMAP
0300
0780
04C0
0000
E01E
E01E
E01E
E01E
E01E
E01E
E01E
E01C
F03C
7FFC
7FF8
1FE0
ENDCHAR
STARTCHAR 00FC
ENCODING 252
SWIDTH 960 0
DWIDTH 16 0
BBX 15 15 1 0
BITMAP
0EC0
0EC0
0000
E01E
E01E
E01E
E01E
E01E
E01E
E01E
E01C
F03C
7FFC
7FF8
1FE0
ENDCHAR
STARTCHAR 00FD
ENCODING 253
SWIDTH 1020 0
DWIDTH 17 0
BBX 16 15 1 0
BITMAP
00C0
07C0
0000
F01F
F81E
7C3C
3C78
1EF0
0FE0
07E0
07C0
0380
0380
0380
0380
ENDCHAR
STARTCHAR 00FE
ENCODING 254
SWIDTH 960 0
DWIDTH 16 0
BBX 14 12 1 0
BITMAP
F000
F000
FFF0
FFF8
FFFC
F01C
F01C
F01C
F3FC
F7F8
F7E0
F000
ENDCHAR
STARTCHAR 00FF
ENCODING 255
SWIDTH 1020 0
DWIDTH 17 0
BBX 16 15 1 0
BITMAP
06E0
06E0
0000
F01F
F81E
7C3C
3C78
1EF0
0FE0
07E0
07C0
0380
0380
0380
0380
ENDCHAR
STARTCHAR 0100
ENCODING 256
SWIDTH 1140 0
DWIDTH 19 0
BBX 17 14 1 0
BITMAP
03E000
000000
01C000
03E000
03F000
07F000
0F7800
0F7800
1E3C00
3C1E00
3C1E00
79FF00
F3FF80
F7FF80
ENDCHAR
STARTCHAR 0101
ENCODING 257
SWIDTH 1140 0
DWIDTH 19 0
BBX 17 14 1 0
BITMAP
03E000
000000
01C000
03E000
03F000
07F000
0F7800
0F7800
1E3C00
3C1E00
3C1E00
79FF00
F3FF80
F7FF80
ENDCHAR
STARTCHAR 0102
ENCODING 258
SWIDTH 1140 0
DWIDTH 19 0
BBX 17 15 1 0
BITMAP
036000
03E000
008000
01C000
03E000
03F000
07F000
0F7800
0F7800
1E3C00
3C1E00
3C1E00
79FF00
F3FF80
F7FF80
ENDCHAR
STARTCHAR 0103
ENCODING 259
SWIDTH 1140 0
DWIDTH 19 0
BBX 17 15 1 0
BITMAP
036000
03E000
008000
01C000
03E000
03F000
07F000
0F7800
0F7800
1E3C00
3C1E00
3C1E00
79FF00
F3FF80
F7FF80
ENDCHAR
STARTCHAR 0104
ENCODING 260
SWIDTH 1140 0
DWIDTH 19 0
BBX 18 16 1 -4
BITMAP
01C000
03E000
03F000
07F000
0F7800
0F7800
1E3C00
3C1E00
3C1E00
79FF00
F3FF80
F7FF80
000080
000100
0003C0
0003C0
ENDCHAR
STARTCHAR 0105
ENCODING 261
SWIDTH 1140 0
DWIDTH 19 0
BBX 18 16 1 -4
BITMAP
01C000
03E000
03F000
07F000
0F7800
0F7800
1E3C00
3C1E00
3C1E00
79FF00
F3FF80
F7FF80
000080
000100
0003C0
0003C0
ENDCHAR
STARTCHAR 0106
ENCODING 262
SWIDTH 900 0
DWIDTH 15 0
BBX 14 15 1 0
BITMAP
00C0
07C0
0000
1FFC
3FF8
7FF0
F000
F000
E000
E000
E000
F000
7FFC
3FF8
0FF0
ENDCHAR
STARTCHAR 0107
ENCODING 263
SWIDTH 900 0
DWIDTH 15 0
BBX 14 15 1 0
BITMAP
00C0
07C0
0000
1FFC
3FF8
7FF0
F000
F000
E000
E000
E000
F000
7FFC
3FF8
0FF0
ENDCHAR
STARTCHAR 010A
ENCODING 266
SWIDTH 900 0
DWIDTH 15 0
BBX 14 15 1 0
BITMAP
0380
0380
0000
1FFC
3FF8
7FF0
F000
F000
E000
E000
E000
F000
7FFC
3FF8
0FF0
ENDCHAR
STARTCHAR 010B
ENCODING 267
SWIDTH 900 0
DWIDTH 15 0
BBX 14 15 1 0
BITMAP
0380
0380
0000
1FFC
3FF8
7FF0
F000
F000
E000
E000
E000
F000
7FFC
3FF8
0FF0
ENDCHAR
STARTCHAR 010C
ENCODING 268
SWIDTH 900 0
DWIDTH 15 0
BBX 14 16 1 0
BITMAP
06C0
06C0
0380
0000
1FFC
3FF8
7FF0
F000
F000
E000
E000
E000
F000
7FFC
3FF8
0FF0
ENDCHAR
STARTCHAR 010D
ENCODING 269
SWIDTH 900 0
DWIDTH 15 0
BBX 14 16 1 0
BITMAP
06C0
06C0
0380
0000
1FFC
3FF8
7FF0
F000
F000
E000
E000
E000
F000
7FFC
3FF8
0FF0
ENDCHAR
STARTCHAR 010E
ENCODING 270
SWIDTH 960 0
DWIDTH 16 0
BBX 14 16 1 0
BITMAP
1900
0B00
0E00
0000
3FC0
7FF0
FFF8
007C
F03C
F01C
F01C
F03C
F03C
FFF8
FFF0
FFC0
ENDCHAR
STARTCHAR 010F
ENCODING 271
SWIDTH 960 0
DWIDTH 16 0
BBX 14 16 1 0
BITMAP
1900
0B00
0E00
0000
3FC0
7FF0
FFF8
007C
F03C
F01C
F01C
F03C
F03C
FFF8
FFF0
FFC0
ENDCHAR
STARTCHAR 0110
ENCODING 272
SWIDTH 1020 0
DWIDTH 17 0
BBX 17 12 0 0
BITMAP
0FF800
0FFE00
1FFF00
000F00
3FC780
7F8780
FF0780
3C0700
3C0F00
3FFE00
3FFE00
3FF800
ENDCHAR
STARTCHAR 0111
ENCODING 273
SWIDTH 1020 0
DWIDTH 17 0
BBX 17 12 0 0
BITMAP
0FF800
0FFE00
1FFF00
000F00
3FC780
7F8780
FF0780
3C0700
3C0F00
3FFE00
3FFE00
3FF800
ENDCHAR
STARTCHAR 0112
ENCODING 274
SWIDTH 840 0
DWIDTH 14 0
BBX 13 15 1 0
BITMAP
0F80
0000
0000
FFF8
FFF0
FFE0
F000
FFF0
FFF0
FFE0
F000
F000
FFF8
FFF0
FFE0
ENDCHAR
STARTCHAR 0113
ENCODING 275
SWIDTH 840 0
DWIDTH 14 0
BBX 13 15 1 0
BITMAP
0F80
0000
0000
FFF8
FFF0
FFE0
F000
FFF0
FFF0
FFE0
F000
F000
FFF8
FFF0
FFE0
ENDCHAR
STARTCHAR 0116
ENCODING 278
SWIDTH 840 0
DWIDTH 14 0
BBX 13 15 1 0
BITMAP
0700
0700
0000
FFF8
FFF0
FFE0
F000
FFF0
FFF0
FFE0
F000
F000
FFF8
FFF0
FFE0
ENDCHAR
STARTCHAR 0117
ENCODING 279
SWIDTH 840 0
DWIDTH 14 0
BBX 13 15 1 0
BITMAP
0700
0700
0000
FFF8
FFF0
FFE0
F000
FFF0
FFF0
FFE0
F000
F000
FFF8
FFF0
FFE0
ENDCHAR
STARTCHAR 0118
ENCODING 280
SWIDTH 840 0
DWIDTH 14 0
BBX 13 16 1 -4
BITMAP
FFF8
FFF0
FFE0
F000
FFF0
FFF0
FFE0
F000
F000
FFF8
FFF0
FFE0
0040
00C0
00E0
00E0
ENDCHAR
STARTCHAR 0119
ENCODING 281
SWIDTH 840 0
DWIDTH 14 0
BBX 13 16 1 -4
BITMAP
FFF8
FFF0
FFE0
F000
FFF0
FFF0
FFE0
F000
F000
FFF8
FFF0
FFE0
0040
00C0
00E0
00E0
ENDCHAR
STARTCHAR 011A
ENCODING 282
SWIDTH 840 0
DWIDTH 14 0
BBX 13 16 1 0
BITMAP
0980
0D00
0700
0000
FFF8
FFF0
FFE0
F000
FFF0
FFF0
FFE0
F000
F000
FFF8
FFF0
FFE0
ENDCHAR
STARTCHAR 011B
ENCODING 283
SWIDTH 840 0
DWIDTH 14 0
BBX 13 16 1 0
BITMAP
0980
0D00
0700
0000
FFF8
FFF0
FFE0
F000
FFF0
FFF0
FFE0
F000
F000
FFF8
FFF0
FFE0
ENDCHAR
STARTCHAR 011E
ENCODING 286
SWIDTH 960 0
DWIDTH 16 0
BBX 14 16 1 0
BITMAP
06C0
06C0
0380
0000
1FFC
3FF8
7FF0
F000
F000
E3FC
E7FC
F01C
F01C
7FFC
3FFC
0FFC
ENDCHAR
STARTCHAR 011F
ENCODING 287
SWIDTH 960 0
DWIDTH 16 0
BBX 14 16 1 0
BITMAP
06C0
06C0
0380
0000
1FFC
3FF8
7FF0
F000
F000
E3FC
E7FC
F01C
F01C
7FFC
3FFC
0FFC
ENDCHAR
STARTCHAR 0120
ENCODING 288
SWIDTH 960 0
DWIDTH 16 0
BBX 14 15 1 0
BITMAP
0380
0380
0000
1FFC
3FF8
7FF0
F000
F000
E3FC
E7FC
F01C
F01C
7FFC
3FFC
0FFC
ENDCHAR
STARTCHAR 0121
ENCODING 289
SWIDTH 960 0
DWIDTH 16 0
BBX 14 15 1 0
BITMAP
0380
0380
0000
1FFC
3FF8
7FF0
F000
F000
E3FC
E7FC
F01C
F01C
7FFC
3FFC
0FFC
ENDCHAR
STARTCHAR 0122
ENCODING 290
SWIDTH 960 0
DWIDTH 16 0
BBX 14 16 1 -4
BITMAP
1FFC
3FF8
7FF0
F000
F000
E3FC
E7FC
F01C
F01C
7FFC
3FFC
0FFC
0000
0180
0180
0100
ENDCHAR
STARTCHAR 0123
ENCODING 291
SWIDTH 960 0
DWIDTH 16 0
BBX 14 16 1 -4
BITMAP
1FFC
3FF8
7FF0
F000
F000
E3FC
E7FC
F01C
F01C
7FFC
3FFC
0FFC
0000
0180
0180
0100
ENDCHAR
STARTCHAR 0126
ENCODING 294
SWIDTH 960 0
DWIDTH 16 0
BBX 14 12 1 0
BITMAP
F03C
FFFC
F03C
F03C
FFFC
FFFC
FFFC
F03C
F03C
F03C
F03C
F03C
ENDCHAR
STARTCHAR 0127
ENCODING 295
SWIDTH 960 0
DWIDTH 16 0
BBX 14 12 1 0
BITMAP
F03C
FFFC
F03C
F03C
FFFC
FFFC
FFFC
F03C
F03C
F03C
F03C
F03C
ENDCHAR
STARTCHAR 012A
ENCODING 298
SWIDTH 360 0
DWIDTH 6 0
BBX 5 15 0 0
BITMAP
F8
00
00
78
78
78
78
78
78
78
78
78
78
78
78
ENDCHAR
STARTCHAR 012B
ENCODING 299
SWIDTH 360 0
DWIDTH 6 0
BBX 5 15 0 0
BITMAP
F8
00
00
78
78
78
78
78
78
78
78
78
78
78
78
ENDCHAR
STARTCHAR 012C
ENCODING 300
SWIDTH 360 0
DWIDTH 6 0
BBX 5 16 0 0
BITMAP
C8
C8
78
00
78
78
78
78
78
78
78
78
78
78
78
78
ENDCHAR
STARTCHAR 012D
ENCODING 301
SWIDTH 360 0
DWIDTH 6 0
BBX 5 16 0 0
BITMAP
C8
C8
78
00
78
78
78
78
78
78
78
78
78
78
78
78
ENDCHAR
STARTCHAR 012E
ENCODING 302
SWIDTH 360 0
DWIDTH 6 0
BBX 4 16 1 -4
BITMAP
F0
F0
F0
F0
F0
F0
F0
F0
F0
F0
F0
F0
20
C0
F0
F0
ENDCHAR
STARTCHAR 012F
ENCODING 303
SWIDTH 360 0
DWIDTH 6 0
BBX 4 16 1 -4
BITMAP
F0
F0
F0
F0
F0
F0
F0
F0
F0
F0
F0
F0
20
C0
F0
F0
ENDCHAR
STARTCHAR 0130
ENCODING 304
SWIDTH 360 0
DWIDTH 6 0
BBX 4 15 1 0
BITMAP
E0
60
00
F0
F0
F0
F0
F0
F0
F0
F0
F0
F0
F0
F0
ENDCHAR
STARTCHAR 0131
ENCODING 305
SWIDTH 360 0
DWIDTH 6 0
BBX 4 12 1 0
BITMAP
F0
F0
F0
F0
F0
F0
F0
F0
F0
F0
F0
F0
ENDCHAR
STARTCHAR 0132
ENCODING 306
SWIDTH 1080 0
DWIDTH 18 0
BBX 16 12 1 0
BITMAP
F00F
F00F
F00F
F00F
F00F
F00F
F00F
F00F
F00F
F1FE
F3FC
F7F8
ENDCHAR
STARTCHAR 0133
ENCODING 307
SWIDTH 1080 0
DWIDTH 18 0
BBX 16 12 1 0
BITMAP
F00F
F00F
F00F
F00F
F00F
F00F
F00F
F00F
F00F
F1FE
F3FC
F7F8
ENDCHAR
STARTCHAR 0136
ENCODING 310
SWIDTH 900 0
DWIDTH 15 0
BBX 14 16 1 -4
BITMAP
F0F8
F1F0
F3E0
F780
EF00
FE00
FF00
EF80
F7C0
F3E0
F1F0
F0FC
0000
0600
0600
0400
ENDCHAR
STARTCHAR 0137
ENCODING 311
SWIDTH 900 0
DWIDTH 15 0
BBX 14 16 1 -4
BITMAP
F0F8
F1F0
F3E0
F780
EF00
FE00
FF00
EF80
F7C0
F3E0
F1F0
F0FC
0000
0600
0600
0400
ENDCHAR
STARTCHAR 0139
ENCODING 313
SWIDTH 780 0
DWIDTH 13 0
BBX 12 15 1 0
BITMAP
3800
F800
0000
F000
F000
F000
F000
F000
F000
F000
F000
F000
FFF0
FFE0
FFC0
ENDCHAR
STARTCHAR 013A
ENCODING 314
SWIDTH 780 0
DWIDTH 13 0
BBX 12 15 1 0
BITMAP
3800
F800
0000
F000
F000
F000
F000
F000
F000
F000
F000
F000
FFF0
FFE0
FFC0
ENDCHAR
STARTCHAR 013B
ENCODING 315
SWIDTH 780 0
DWIDTH 13 0
BBX 12 16 1 -4
BITMAP
F000
F000
F000
F000
F000
F000
F000
F000
F000
FFF0
FFE0
FFC0
0000
0C00
0800
0800
ENDCHAR
STARTCHAR 013C
ENCODING 316
SWIDTH 780 0
DWIDTH 13 0
BBX 12 16 1 -4
BITMAP
F000
F000
F000
F000
F000
F000
F000
F000
F000
FFF0
FFE0
FFC0
0000
0C00
0800
0800
ENDCHAR
STARTCHAR 013D
ENCODING 317
SWIDTH 780 0
DWIDTH 13 0
BBX 12 12 1 0
BITMAP
F380
F300
F300
F300
F200
F000
F000
F000
F000
FFF0
FFE0
FFC0
ENDCHAR
STARTCHAR 013E
ENCODING 318
SWIDTH 780 0
DWIDTH 13 0
BBX 12 12 1 0
BITMAP
F380
F300
F300
F300
F200
F000
F000
F000
F000
FFF0
FFE0
FFC0
ENDCHAR
STARTCHAR 0141
ENCODING 321
SWIDTH 780 0
DWIDTH 13 0
BBX 12 12 1 0
BITMAP
F000
F000
F000
F000
FF80
FF00
FE00
F000
F000
FFF0
FFE0
FFC0
ENDCHAR
STARTCHAR 0142
ENCODING 322
SWIDTH 780 0
DWIDTH 13 0
BBX 12 12 1 0
BITMAP
F000
F000
F000
F000
FF80
FF00
FE00
F000
F000
FFF0
FFE0
FFC0
ENDCHAR
STARTCHAR 0143
ENCODING 323
SWIDTH 900 0
DWIDTH 15 0
BBX 13 15 1 0
BITMAP
0180
0F80
0000
6038
F038
F838
FC38
FF38
EFB8
E7F8
E3F8
E1F8
E0F8
E078
E038
ENDCHAR
STARTCHAR 0144
ENCODING 324
SWIDTH 900 0
DWIDTH 15 0
BBX 13 15 1 0
BITMAP
0180
0F80
0000
6038
F038
F838
FC38
FF38
EFB8
E7F8
E3F8
E1F8
E0F8
E078
E038
ENDCHAR
STARTCHAR 0145
ENCODING 325
SWIDTH 900 0
DWIDTH 15 0
BBX 13 16 1 -4
BITMAP
6038
F038
F838
FC38
FF38
EFB8
E7F8
E3F8
E1F8
E0F8
E078
E038
0600
0600
0600
0400
ENDCHAR
STARTCHAR 0146
ENCODING 326
SWIDTH 900 0
DWIDTH 15 0
BBX 13 16 1 -4
BITMAP
6038
F038
F838
FC38
FF38
EFB8
E7F8
E3F8
E1F8
E0F8
E078
E038
0600
0600
0600
0400
ENDCHAR
STARTCHAR 0147
ENCODING 327
SWIDTH 900 0
DWIDTH 15 0
BBX 13 15 1 0
BITMAP
0D80
0500
0700
6038
F038
F838
FC38
FF38
EFB8
E7F8
E3F8
E1F8
E0F8
E078
E038
ENDCHAR
STARTCHAR 0148
ENCODING 328
SWIDTH 900 0
DWIDTH 15 0
BBX 13 15 1 0
BITMAP
0D80
0500
0700
6038
F038
F838
FC38
FF38
EFB8
E7F8
E3F8
E1F8
E0F8
E078
E038
ENDCHAR
STARTCHAR 014A
ENCODING 330
SWIDTH 900 0
DWIDTH 15 0
BBX 13 16 1 -4
BITMAP
6038
F038
F838
FC38
FE38
EF38
E7F8
E3F8
E1F8
E0F8
E078
E038
0038
03F8
07F0
0FC0
ENDCHAR
STARTCHAR 014B
ENCODING 331
SWIDTH 900 0
DWIDTH 15 0
BBX 13 16 1 -4
BITMAP
6038
F038
F838
FC38
FE38
EF38
E7F8
E3F8
E1F8
E0F8
E078
E038
0038
03F8
07F0
0FC0
ENDCHAR
STARTCHAR 014C
ENCODING 332
SWIDTH 1080 0
DWIDTH 18 0
BBX 16 14 1 0
BITMAP
07C0
0000
0FF0
3FFC
7FFE
F00F
E00F
E007
E007
E00F
F00F
7FFE
3FFC
0FF0
ENDCHAR
STARTCHAR 014D
ENCODING 333
SWIDTH 1080 0
DWIDTH 18 0
BBX 16 14 1 0
BITMAP
07C0
0000
0FF0
3FFC
7FFE
F00F
E00F
E007
E007
E00F
F00F
7FFE
3FFC
0FF0
ENDCHAR
STARTCHAR 0150
ENCODING 336
SWIDTH 1080 0
DWIDTH 18 0
BBX 16 15 1 0
BITMAP
0360
06C0
0000
0FF0
3FFC
7FFE
F00F
E00F
E007
E007
E00F
F00F
7FFE
3FFC
0FF0
ENDCHAR
STARTCHAR 0151
ENCODING 337
SWIDTH 1080 0
DWIDTH 18 0
BBX 16 15 1 0
BITMAP
0360
06C0
0000
0FF0
3FFC
7FFE
F00F
E00F
E007
E007
E00F
F00F
7FFE
3FFC
0FF0
ENDCHAR
STARTCHAR 0152
ENCODING 338
SWIDTH 1500 0
DWIDTH 25 0
BBX 24 12 1 0
BITMAP
0FFFFF
3FFFFE
7FFFFC
F01C00
E01FFE
E01FFE
E01FFC
E01C00
F01C00
7FFFFF
3FFFFE
0FFFFC
ENDCHAR
STARTCHAR 0153
ENCODING 339
SWIDTH 1500 0
DWIDTH 25 0
BBX 24 12 1 0
BITMAP
0FFFFF
3FFFFE
7FFFFC
F01C00
E01FFE
E01FFE
E01FFC
E01C00
F01C00
7FFFFF
3FFFFE
0FFFFC
ENDCHAR
STARTCHAR 0154
ENCODING 340
SWIDTH 1020 0
DWIDTH 17 0
BBX 15 15 1 0
BITMAP
01C0
07C0
0000
3FF8
7FFC
FFFE
001E
000E
001E
FFFE
FFFC
FFF8
E07C
E03E
E01E
ENDCHAR
STARTCHAR 0155
ENCODING 341
SWIDTH 1020 0
DWIDTH 17 0
BBX 15 15 1 0
BITMAP
01C0
07C0
0000
3FF8
7FFC
FFFE
001E
000E
001E
FFFE
FFFC
FFF8
E07C
E03E
E01E
ENDCHAR
STARTCHAR 0156
ENCODING 342
SWIDTH 1020 0
DWIDTH 17 0
BBX 15 16 1 -4
BITMAP
3FF8
7FFC
FFFE
001E
000E
001E
FFFE
FFFC
FFF8
E07C
E03E
E01E
0000
0300
0300
0200
ENDCHAR
STARTCHAR 0157
ENCODING 343
SWIDTH 1020 0
DWIDTH 17 0
BBX 15 16 1 -4
BITMAP
3FF8
7FFC
FFFE
001E
000E
001E
FFFE
FFFC
FFF8
E07C
E03E
E01E
0000
0300
0300
0200
ENDCHAR
STARTCHAR 0158
ENCODING 344
SWIDTH 1020 0
DWIDTH 17 0
BBX 15 16 1 0
BITMAP
0CC0
0780
0300
0000
3FF8
7FFC
FFFE
001E
000E
001E
FFFE
FFFC
FFF8
E07C
E03E
E01E
ENDCHAR
STARTCHAR 0159
ENCODING 345
SWIDTH 1020 0
DWIDTH 17 0
BBX 15 16 1 0
BITMAP
0CC0
0780
0300
0000
3FF8
7FFC
FFFE
001E
000E
001E
FFFE
FFFC
FFF8
E07C
E03E
E01E
ENDCHAR
STARTCHAR 015A
ENCODING 346
SWIDTH 960 0
DWIDTH 16 0
BBX 15 15 1 0
BITMAP
01C0
07C0
0000
3FFC
FFF8
FFF0
E000
E000
FFF8
7FFC
001E
001E
7FFC
7FFC
FFF8
ENDCHAR
STARTCHAR 015B
ENCODING 347
SWIDTH 960 0
DWIDTH 16 0
BBX 15 15 1 0
BITMAP
01C0
07C0
0000
3FFC
FFF8
FFF0
E000
E000
FFF8
7FFC
001E
001E
7FFC
7FFC
FFF8
ENDCHAR
STARTCHAR 015E
ENCODING 350
SWIDTH 960 0
DWIDTH 16 0
BBX 15 16 1 -4
BITMAP
3FFC
FFF8
FFF0
E000
E000
FFF8
7FFC
001E
001E
7FFC
7FFC
FFF8
0300
0300
0300
0200
ENDCHAR
STARTCHAR 015F
ENCODING 351
SWIDTH 960 0
DWIDTH 16 0
BBX 15 16 1 -4
BITMAP
3FFC
FFF8
FFF0
E000
E000
FFF8
7FFC
001E
001E
7FFC
7FFC
FFF8
0300
0300
0300
0200
ENDCHAR
STARTCHAR 0160
ENCODING 352
SWIDTH 960 0
DWIDTH 16 0
BBX 15 16 1 0
BITMAP
0CC0
0680
0300
0000
3FFC
FFF8
FFF0
E000
E000
FFF8
7FFC
001E
001E
7FFC
7FFC
FFF8
ENDCHAR
STARTCHAR 0161
ENCODING 353
SWIDTH 960 0
DWIDTH 16 0
BBX 15 16 1 0
BITMAP
0CC0
0680
0300
0000
3FFC
FFF8
FFF0
E000
E000
FFF8
7FFC
001E
001E
7FFC
7FFC
FFF8
ENDCHAR
STARTCHAR 0164
ENCODING 356
SWIDTH 900 0
DWIDTH 15 0
BBX 15 16 0 0
BITMAP
0CC0
0780
0300
0000
3FFE
7FFC
FFF8
0780
0780
0780
0780
0780
0780
0780
0780
0780
ENDCHAR
STARTCHAR 0165
ENCODING 357
SWIDTH 900 0
DWIDTH 15 0
BBX 15 16 0 0
BITMAP
0CC0
0780
0300
0000
3FFE
7FFC
FFF8
0780
0780
0780
0780
0780
0780
0780
0780
0780
ENDCHAR
STARTCHAR 0166
ENCODING 358
SWIDTH 900 0
DWIDTH 15 0
BBX 15 12 0 0
BITMAP
3FFE
7FFC
FFF8
0780
0780
0FE0
1FC0
0780
0780
0780
0780
0780
ENDCHAR
STARTCHAR 0167
ENCODING 359
SWIDTH 900 0
DWIDTH 15 0
BBX 15 12 0 0
BITMAP
3FFE
7FFC
FFF8
0780
0780
0FE0
1FC0
0780
0780
0780
0780
0780
ENDCHAR
STARTCHAR 0168
ENCODING 360
SWIDTH 960 0
DWIDTH 16 0
BBX 15 15 1 0
BITMAP
07C0
0180
0000
E01E
E01E
E01E
E01E
E01E
E01E
E01E
E01C
F03C
7FFC
7FF8
1FE0
ENDCHAR
STARTCHAR 0169
ENCODING 361
SWIDTH 960 0
DWIDTH 16 0
BBX 15 15 1 0
BITMAP
07C0
0180
0000
E01E
E01E
E01E
E01E
E01E
E01E
E01E
E01C
F03C
7FFC
7FF8
1FE0
ENDCHAR
STARTCHAR 016A
ENCODING 362
SWIDTH 960 0
DWIDTH 16 0
BBX 15 15 1 0
BITMAP
07C0
0000
0000
E01E
E01E
E01E
E01E
E01E
E01E
E01E
E01C
F03C
7FFC
7FF8
1FE0
ENDCHAR
STARTCHAR 016B
ENCODING 363
SWIDTH 960 0
DWIDTH 16 0
BBX 15 15 1 0
BITMAP
07C0
0000
0000
E01E
E01E
E01E
E01E
E01E
E01E
E01E
E01C
F03C
7FFC
7FF8
1FE0
ENDCHAR
STARTCHAR 016C
ENCODING 364
SWIDTH 960 0
DWIDTH 16 0
BBX 15 16 1 0
BITMAP
04C0
04C0
0780
0000
E01E
E01E
E01E
E01E
E01E
E01E
E01E
E01C
F03C
7FFC
7FF8
1FE0
ENDCHAR
STARTCHAR 016D
ENCODING 365
SWIDTH 960 0
DWIDTH 16 0
BBX 15 16 1 0
BITMAP
04C0
04C0
0780
0000
E01E
E01E
E01E
E01E
E01E
E01E
E01E
E01C
F03C
7FFC
7FF8
1FE0
ENDCHAR
STARTCHAR 016E
ENCODING 366
SWIDTH 960 0
DWIDTH 16 0
BBX 15 17 1 0
BITMAP
0780
04C0
04C0
0780
0000
E01E
E01E
E01E
E01E
E01E
E01E
E01E
E01C
F03C
7FFC
7FF8
1FE0
ENDCHAR
STARTCHAR 016F
ENCODING 367
SWIDTH 960 0
DWIDTH 16 0
BBX 15 17 1 0
BITMAP
0780
04C0
04C0
0780
0000
E01E
E01E
E01E
E01E
E01E
E01E
E01E
E01C
F03C
7FFC
7FF8
1FE0
ENDCHAR
STARTCHAR 0170
ENCODING 368
SWIDTH 960 0
DWIDTH 16 0
BBX 15 15 1 0
BITMAP
06C0
0480
0000
E01E
E01E
E01E
E01E
E01E
E01E
E01E
E01C
F03C
7FFC
7FF8
1FE0
ENDCHAR
STARTCHAR 0171
ENCODING 369
SWIDTH 960 0
DWIDTH 16 0
BBX 15 15 1 0
BITMAP
06C0
0480
0000
E01E
E01E
E01E
E01E
E01E
E01E
E01E
E01C
F03C
7FFC
7FF8
1FE0
ENDCHAR
STARTCHAR 0172
ENCODING 370
SWIDTH 960 0
DWIDTH 16 0
BBX 15 16 1 -4
BITMAP
E01E
E01E
E01E
E01E
E01E
E01E
E01E
E01C
F03C
7FFC
7FF8
1FE0
0080
0100
03C0
01C0
ENDCHAR
STARTCHAR 0173
ENCODING 371
SWIDTH 960 0
DWIDTH 16 0
BBX 15 16 1 -4
BITMAP
E01E
E01E
E01E
E01E
E01E
E01E
E01E
E01C
F03C
7FFC
7FF8
1FE0
0080
0100
03C0
01C0
ENDCHAR
STARTCHAR 0174
ENCODING 372
SWIDTH 1260 0
DWIDTH 21 0
BBX 21 15 0 0
BITMAP
007000
00D800
00D800
F07078
70F870
70F870
79FCF0
79DCE0
3BDEE0
3B8EE0
3F8FE0
1F07C0
1F07C0
1E03C0
0C0180
ENDCHAR
STARTCHAR 0175
ENCODING 373
SWIDTH 1260 0
DWIDTH 21 0
BBX 21 15 0 0
BITMAP
007000
00D800
00D800
F07078
70F870
70F870
79FCF0
79DCE0
3BDEE0
3B8EE0
3F8FE0
1F07C0
1F07C0
1E03C0
0C0180
ENDCHAR
STARTCHAR 0176
ENCODING 374
SWIDTH 1020 0
DWIDTH 17 0
BBX 16 16 1 0
BITMAP
0180
03C0
0640
0000
F01F
F81E
7C3C
3C78
1EF0
0FE0
07E0
07C0
0380
0380
0380
0380
ENDCHAR
STARTCHAR 0177
ENCODING 375
SWIDTH 1020 0
DWIDTH 17 0
BBX 16 16 1 0
BITMAP
0180
03C0
0640
0000
F01F
F81E
7C3C
3C78
1EF0
0FE0
07E0
07C0
0380
0380
0380
0380
ENDCHAR
STARTCHAR 0178
ENCODING 376
SWIDTH 1020 0
DWIDTH 17 0
BBX 16 15 1 0
BITMAP
06E0
06E0
0000
F01F
F81E
7C3C
3C78
1EF0
0FE0
07E0
07C0
0380
0380
0380
0380
ENDCHAR
STARTCHAR 0179
ENCODING 377
SWIDTH 900 0
DWIDTH 15 0
BBX 15 15 0 0
BITMAP
01C0
07C0
0000
3FFC
7FFC
FFFC
00F8
01F0
07E0
0F80
1F00
3E00
7FFE
7FFC
7FF8
ENDCHAR
STARTCHAR 017A
ENCODING 378
SWIDTH 900 0
DWIDTH 15 0
BBX 15 15 0 0
BITMAP
01C0
07C0
0000
3FFC
7FFC
FFFC
00F8
01F0
07E0
0F80
1F00
3E00
7FFE
7FFC
7FF8
ENDCHAR
STARTCHAR 017B
ENCODING 379
SWIDTH 900 0
DWIDTH 15 0
BBX 15 15 0 0
BITMAP
0380
0180
0000
3FFC
7FFC
FFFC
00F8
01F0
07E0
0F80
1F00
3E00
7FFE
7FFC
7FF8
ENDCHAR
STARTCHAR 017C
ENCODING 380
SWIDTH 900 0
DWIDTH 15 0
BBX 15 15 0 0
BITMAP
0380
0180
0000
3FFC
7FFC
FFFC
00F8
01F0
07E0
0F80
1F00
3E00
7FFE
7FFC
7FF8
ENDCHAR
STARTCHAR 017D
ENCODING 381
SWIDTH 900 0
DWIDTH 15 0
BBX 15 16 0 0
BITMAP
0640
02C0
0380
0000
3FFC
7FFC
FFFC
00F8
01F0
07E0
0F80
1F00
3E00
7FFE
7FFC
7FF8
ENDCHAR
STARTCHAR 017E
ENCODING 382
SWIDTH 900 0
DWIDTH 15 0
BBX 15 16 0 0
BITMAP
0640
02C0
0380
0000
3FFC
7FFC
FFFC
00F8
01F0
07E0
0F80
1F00
3E00
7FFE
7FFC
7FF8
ENDCHAR
STARTCHAR 0218
ENCODING 536
SWIDTH 960 0
DWIDTH 16 0
BBX 15 16 1 -4
BITMAP
3FFC
FFF8
FFF0
E000
E000
FFF8
7FFC
001E
001E
7FFC
7FFC
FFF8
0000
0300
0300
0200
ENDCHAR
STARTCHAR 0219
ENCODING 537
SWIDTH 960 0
DWIDTH 16 0
BBX 15 16 1 -4
BITMAP
3FFC
FFF8
FFF0
E000
E000
FFF8
7FFC
001E
001E
7FFC
7FFC
FFF8
0000
0300
0300
0200
ENDCHAR
STARTCHAR 021A
ENCODING 538
SWIDTH 900 0
DWIDTH 15 0
BBX 15 16 0 -4
BITMAP
3FFE
7FFC
FFF8
0780
0780
0780
0780
0780
0780
0780
0780
0780
0000
0300
0300
0200
ENDCHAR
STARTCHAR 021B
ENCODING 539
SWIDTH 900 0
DWIDTH 15 0
BBX 15 16 0 -4
BITMAP
3FFE
7FFC
FFF8
0780
0780
0780
0780
0780
0780
0780
0780
0780
0000
0300
0300
0200
ENDCHAR
STARTCHAR 02C6
ENCODING 710
SWIDTH 420 0
DWIDTH 7 0
BBX 5 3 1 12
BITMAP
70
50
D8
ENDCHAR
STARTCHAR 02C7
ENCODING 711
SWIDTH 420 0
DWIDTH 7 0
BBX 5 3 1 12
BITMAP
98
D0
70
ENDCHAR
STARTCHAR 02D8
ENCODING 728
SWIDTH 420 0
DWIDTH 7 0
BBX 5 3 1 12
BITMAP
98
D8
70
ENDCHAR
STARTCHAR 02D9
ENCODING 729
SWIDTH 240 0
DWIDTH 4 0
BBX 3 2 0 12
BITMAP
E0
60
ENDCHAR
STARTCHAR 02DA
ENCODING 730
SWIDTH 360 0
DWIDTH 6 0
BBX 5 4 1 12
BITMAP
F0
98
98
F0
ENDCHAR
STARTCHAR 02DB
ENCODING 731
SWIDTH 300 0
DWIDTH 5 0
BBX 3 4 1 -4
BITMAP
60
80
E0
E0
ENDCHAR
STARTCHAR 02DC
ENCODING 732
SWIDTH 420 0
DWIDTH 7 0
BBX 5 2 1 12
BITMAP
F8
30
ENDCHAR
STARTCHAR 02DD
ENCODING 733
SWIDTH 480 0
DWIDTH 8 0
BBX 6 2 1 12
BITMAP
6C
D8
ENDCHAR
STARTCHAR 0326
ENCODING 806
SWIDTH 240 0
DWIDTH 4 0
BBX 2 3 1 -4
BITMAP
C0
C0
C0
ENDCHAR
STARTCHAR 1E80
ENCODING 7808
SWIDTH 1260 0
DWIDTH 21 0
BBX 21 15 0 0
BITMAP
00C000
00F800
000000
F07078
70F870
70F870
79FCF0
79DCE0
3BDEE0
3B8EE0
3F8FE0
1F07C0
1F07C0
1E03C0
0C0180
ENDCHAR
STARTCHAR 1E81
ENCODING 7809
SWIDTH 1260 0
DWIDTH 21 0
BBX 21 15 0 0
BITMAP
00C000
00F800
000000
F07078
70F870
70F870
79FCF0
79DCE0
3BDEE0
3B8EE0
3F8FE0
1F07C0
1F07C0
1E03C0
0C0180
ENDCHAR
STARTCHAR 1E82
ENCODING 7810
SWIDTH 1260 0
DWIDTH 21 0
BBX 21 15 0 0
BITMAP
001800
00F800
000000
F07078
70F870
70F870
79FCF0
79DCE0
3BDEE0
3B8EE0
3F8FE0
1F07C0
1F07C0
1E03C0
0C0180
ENDCHAR
STARTCHAR 1E83
ENCODING 7811
SWIDTH 1260 0
DWIDTH 21 0
BBX 21 15 0 0
BITMAP
001800
00F800
000000
F07078
70F870
70F870
79FCF0
79DCE0
3BDEE0
3B8EE0
3F8FE0
1F07C0
1F07C0
1E03C0
0C0180
ENDCHAR
STARTCHAR 1E84
ENCODING 7812
SWIDTH 1260 0
DWIDTH 21 0
BBX 21 15 0 0
BITMAP
01DC00
00D800
000000
F07078
70F870
70F870
79FCF0
79DCE0
3BDEE0
3B8EE0
3F8FE0
1F07C0
1F07C0
1E03C0
0C0180
ENDCHAR
STARTCHAR 1E85
ENCODING 7813
SWIDTH 1260 0
DWIDTH 21 0
BBX 21 15 0 0
BITMAP
01DC00
00D800
000000
F07078
70F870
70F870
79FCF0
79DCE0
3BDEE0
3B8EE0
3F8FE0
1F07C0
1F07C0
1E03C0
0C0180
ENDCHAR
STARTCHAR 1EF2
ENCODING 7922
SWIDTH 1020 0
DWIDTH 17 0
BBX 16 15 1 0
BITMAP
0600
07C0
0000
F01F
F81E
7C3C
3C78
1EF0
0FE0
07E0
07C0
0380
0380
0380
0380
ENDCHAR
STARTCHAR 1EF3
ENCODING 7923
SWIDTH 1020 0
DWIDTH 17 0
BBX 16 15 1 0
BITMAP
0600
07C0
0000
F01F
F81E
7C3C
3C78
1EF0
0FE0
07E0
07C0
0380
0380
0380
0380
ENDCHAR
STARTCHAR 2013
ENCODING 8211
SWIDTH 600 0
DWIDTH 10 0
BBX 9 2 1 5
BITMAP
7F80
FF00
ENDCHAR
STARTCHAR 2014
ENCODING 8212
SWIDTH 1020 0
DWIDTH 17 0
BBX 15 2 1 5
BITMAP
7FFE
FFFC
ENDCHAR
STARTCHAR 2018
ENCODING 8216
SWIDTH 240 0
DWIDTH 4 0
BBX 3 5 0 7
BITMAP
20
60
60
60
E0
ENDCHAR
STARTCHAR 2019
ENCODING 8217
SWIDTH 240 0
DWIDTH 4 0
BBX 3 5 0 7
BITMAP
E0
E0
E0
C0
C0
ENDCHAR
STARTCHAR 201A
ENCODING 8218
SWIDTH 240 0
DWIDTH 4 0
BBX 3 5 0 -2
BITMAP
E0
E0
E0
C0
C0
ENDCHAR
STARTCHAR 201B
ENCODING 8219
SWIDTH 240 0
DWIDTH 4 0
BBX 3 5 0 7
BITMAP
E0
60
60
60
20
ENDCHAR
STARTCHAR 201C
ENCODING 8220
SWIDTH 420 0
DWIDTH 7 0
BBX 7 5 0 7
BITMAP
22
66
66
66
EE
ENDCHAR
STARTCHAR 201D
ENCODING 8221
SWIDTH 420 0
DWIDTH 7 0
BBX 7 5 0 7
BITMAP
EE
EE
EC
CC
CC
ENDCHAR
STARTCHAR 201E
ENCODING 8222
SWIDTH 420 0
DWIDTH 7 0
BBX 7 5 0 -2
BITMAP
EE
EE
EC
CC
CC
ENDCHAR
STARTCHAR 201F
ENCODING 8223
SWIDTH 420 0
DWIDTH 7 0
BBX 7 5 0 7
BITMAP
EE
66
66
66
22
ENDCHAR
STARTCHAR 2020
ENCODING 8224
SWIDTH 420 0
DWIDTH 7 0
BBX 5 12 1 0
BITMAP
20
20
20
70
F8
20
20
20
20
20
20
20
ENDCHAR
STARTCHAR 2021
ENCODING 8225
SWIDTH 420 0
DWIDTH 7 0
BBX 5 12 1 0
BITMAP
20
20
20
F8
20
20
20
20
F8
20
20
20
ENDCHAR
STARTCHAR 2022
ENCODING 8226
SWIDTH 480 0
DWIDTH 8 0
BBX 6 5 1 3
BITMAP
78
F8
FC
F8
78
ENDCHAR
STARTCHAR 2026
ENCODING 8230
SWIDTH 900 0
DWIDTH 15 0
BBX 14 3 1 0
BITMAP
E738
E7BC
E738
ENDCHAR
STARTCHAR 2030
ENCODING 8240
SWIDTH 1380 0
DWIDTH 23 0
BBX 21 13 1 -1
BITMAP
002000
FC6000
C64000
868000
CF8000
7D0000
020000
07FBF0
0D0B18
0B0F18
190B18
31FBF0
200000
ENDCHAR
STARTCHAR 2032
ENCODING 8242
SWIDTH 240 0
DWIDTH 4 0
BBX 4 5 0 7
BITMAP
70
60
60
C0
C0
ENDCHAR
STARTCHAR 2033
ENCODING 8243
SWIDTH 420 0
DWIDTH 7 0
BBX 7 5 0 7
BITMAP
76
66
6C
CC
CC
ENDCHAR
STARTCHAR 2039
ENCODING 8249
SWIDTH 240 0
DWIDTH 4 0
BBX 3 5 0 3
BITMAP
20
60
C0
60
20
ENDCHAR
STARTCHAR 203A
ENCODING 8250
SWIDTH 240 0
DWIDTH 4 0
BBX 3 5 1 3
BITMAP
80
C0
20
C0
80
ENDCHAR
STARTCHAR 2044
ENCODING 8260
SWIDTH 300 0
DWIDTH 5 0
BBX 9 13 -2 -1
BITMAP
0080
0180
0100
0200
0600
0C00
0800
1800
3000
2000
4000
C000
8000
ENDCHAR
STARTCHAR 2070
ENCODING 8304
SWIDTH 480 0
DWIDTH 8 0
BBX 7 5 1 6
BITMAP
FC
86
86
CC
7C
ENDCHAR
STARTCHAR 2074
ENCODING 8308
SWIDTH 480 0
DWIDTH 8 0
BBX 8 6 0 6
BITMAP
04
0E
3E
76
FF
06
ENDCHAR
STARTCHAR 2075
ENCODING 8309
SWIDTH 480 0
DWIDTH 8 0
BBX 6 5 1 6
BITMAP
FC
C0
FC
04
FC
ENDCHAR
STARTCHAR 2076
ENCODING 8310
SWIDTH 540 0
DWIDTH 9 0
BBX 7 5 1 6
BITMAP
FC
C0
FE
C6
7C
ENDCHAR
STARTCHAR 2077
ENCODING 8311
SWIDTH 480 0
DWIDTH 8 0
BBX 6 5 1 6
BITMAP
FC
18
38
30
60
ENDCHAR
STARTCHAR 2078
ENCODING 8312
SWIDTH 480 0
DWIDTH 8 0
BBX 7 5 1 6
BITMAP
FE
86
FC
86
FC
ENDCHAR
STARTCHAR 2079
ENCODING 8313
SWIDTH 540 0
DWIDTH 9 0
BBX 7 5 1 6
BITMAP
FC
86
FE
0E
FC
ENDCHAR
STARTCHAR 2080
ENCODING 8320
SWIDTH 480 0
DWIDTH 8 0
BBX 7 5 1 0
BITMAP
FC
86
86
86
FC
ENDCHAR
STARTCHAR 2081
ENCODING 8321
SWIDTH 240 0
DWIDTH 4 0
BBX 2 5 1 0
BITMAP
C0
40
40
40
40
ENDCHAR
STARTCHAR 2082
ENCODING 8322
SWIDTH 480 0
DWIDTH 8 0
BBX 7 5 1 0
BITMAP
FC
06
FC
80
FC
ENDCHAR
STARTCHAR 2083
ENCODING 8323
SWIDTH 480 0
DWIDTH 8 0
BBX 6 5 1 0
BITMAP
FC
04
7C
04
FC
ENDCHAR
STARTCHAR 2084
ENCODING 8324
SWIDTH 480 0
DWIDTH 8 0
BBX 8 6 0 0
BITMAP
04
0E
3E
76
FF
06
ENDCHAR
STARTCHAR 2085
ENCODING 8325
SWIDTH 480 0
DWIDTH 8 0
BBX 6 5 1 0
BITMAP
FC
C0
FC
04
FC
ENDCHAR
STARTCHAR 2086
ENCODING 8326
SWIDTH 540 0
DWIDTH 9 0
BBX 7 5 1 0
BITMAP
FC
C0
FE
C6
FE
ENDCHAR
STARTCHAR 2087
ENCODING 8327
SWIDTH 480 0
DWIDTH 8 0
BBX 6 5 1 0
BITMAP
FC
18
38
30
60
ENDCHAR
STARTCHAR 2088
ENCODING 8328
SWIDTH 480 0
DWIDTH 8 0
BBX 7 5 1 0
BITMAP
FE
86
FC
86
FC
ENDCHAR
STARTCHAR 2089
ENCODING 8329
SWIDTH 540 0
DWIDTH 9 0
BBX 7 5 1 0
BITMAP
FC
86
FE
0E
FC
ENDCHAR
STARTCHAR 20AC
ENCODING 8364
SWIDTH 900 0
DWIDTH 15 0
BBX 14 12 0 0
BITMAP
07FC
1FF8
3FF8
3C00
7FE0
7800
7800
FF80
3C00
3FFC
1FF8
07F0
ENDCHAR
STARTCHAR 2117
ENCODING 8471
SWIDTH 780 0
DWIDTH 13 0
BBX 11 12 1 0
BITMAP
1F00
2080
4040
8F20
8120
8120
9F20
9020
9020
4040
2080
1F00
ENDCHAR
STARTCHAR 2122
ENCODING 8482
SWIDTH 600 0
DWIDTH 10 0
BBX 8 5 1 7
BITMAP
E9
4B
4B
4F
4D
ENDCHAR
STARTCHAR 2153
ENCODING 8531
SWIDTH 900 0
DWIDTH 15 0
BBX 14 12 1 0
BITMAP
0040
E080
6180
6300
6200
6400
0C00
19F8
100C
20F8
600C
C1F8
ENDCHAR
STARTCHAR 2154
ENCODING 8532
SWIDTH 1020 0
DWIDTH 17 0
BBX 16 12 1 0
BITMAP
0010
FE30
0660
FC40
8080
FD80
0300
027E
0402
0C3E
1803
107E
ENDCHAR
STARTCHAR 215B
ENCODING 8539
SWIDTH 960 0
DWIDTH 16 0
BBX 14 12 1 0
BITMAP
0040
E0C0
6180
6100
6200
6600
0C00
09FC
1184
30FC
6184
40FC
ENDCHAR
STARTCHAR 215C
ENCODING 8540
SWIDTH 1080 0
DWIDTH 18 0
BBX 16 12 1 0
BITMAP
0018
FE10
0620
3C60
06C0
FC80
0100
033F
0661
043F
0861
183F
ENDCHAR
STARTCHAR 215D
ENCODING 8541
SWIDTH 1080 0
DWIDTH 18 0
BBX 16 12 1 0
BITMAP
0010
FC30
C060
FC40
0480
FD80
0300
027F
0463
0C7E
1863
107F
ENDCHAR
STARTCHAR 215E
ENCODING 8542
SWIDTH 960 0
DWIDTH 16 0
BBX 15 12 1 0
BITMAP
0020
FE40
0CC0
1980
3100
6200
0600
0CFC
0886
10FC
3186
60FC
ENDCHAR
STARTCHAR 2212
ENCODING 8722
SWIDTH 600 0
DWIDTH 10 0
BBX 9 2 1 5
BITMAP
FF80
FF80
ENDCHAR
STARTCHAR 2248
ENCODING 8776
SWIDTH 540 0
DWIDTH 9 0
BBX 8 8 1 2
BITMAP
01
F3
FF
9E
01
FB
FF
8E
ENDCHAR
STARTCHAR 2260
ENCODING 8800
SWIDTH 600 0
DWIDTH 10 0
BBX 10 13 0 -1
BITMAP
0040
0080
0180
7FC0
7FC0
0600
0400
0800
7FC0
7FC0
2000
6000
C000
ENDCHAR
STARTCHAR 2264
ENCODING 8804
SWIDTH 600 0
DWIDTH 10 0
BBX 9 12 1 -2
BITMAP
0180
0780
1E00
7800
E000
7800
1E00
0780
0180
0000
FF80
FF80
ENDCHAR
STARTCHAR 2265
ENCODING 8805
SWIDTH 600 0
DWIDTH 10 0
BBX 9 12 1 -2
BITMAP
8000
E000
7800
1F00
0700
1F00
7800
E000
8000
0000
FF80
FF80
ENDCHAR
ENDFONT
